<?xml version="1.0" encoding="UTF-8" standalone="no"?>
<!-- Creator: CorelDRAW X7 -->

<svg
   xmlns:dc="http://purl.org/dc/elements/1.1/"
   xmlns:cc="http://creativecommons.org/ns#"
   xmlns:rdf="http://www.w3.org/1999/02/22-rdf-syntax-ns#"
   xmlns:svg="http://www.w3.org/2000/svg"
   xmlns="http://www.w3.org/2000/svg"
   xmlns:sodipodi="http://sodipodi.sourceforge.net/DTD/sodipodi-0.dtd"
   xmlns:inkscape="http://www.inkscape.org/namespaces/inkscape"
   xml:space="preserve"
   width="7.2312808in"
   height="5.0058374in"
   version="1.1"
   style="clip-rule:evenodd;fill-rule:evenodd;image-rendering:optimizeQuality;shape-rendering:geometricPrecision;text-rendering:geometricPrecision"
   viewBox="0 0 7231.5255 5005.8804"
   id="svg2"
   inkscape:version="0.91 r13725"
   sodipodi:docname="logo2.svg"><metadata
     id="metadata91"><rdf:RDF><cc:Work
         rdf:about=""><dc:format>image/svg+xml</dc:format><dc:type
           rdf:resource="http://purl.org/dc/dcmitype/StillImage" /><dc:title></dc:title></cc:Work></rdf:RDF></metadata><sodipodi:namedview
     pagecolor="#ffffff"
     bordercolor="#666666"
     borderopacity="1"
     objecttolerance="10"
     gridtolerance="10"
     guidetolerance="10"
     inkscape:pageopacity="0"
     inkscape:pageshadow="2"
     inkscape:window-width="664"
     inkscape:window-height="480"
     id="namedview89"
     showgrid="false"
     fit-margin-top="0"
     fit-margin-left="0"
     fit-margin-right="0"
     fit-margin-bottom="0"
     inkscape:zoom="0.22425765"
     inkscape:cx="340.14575"
     inkscape:cy="162.14144"
     inkscape:window-x="0"
     inkscape:window-y="0"
     inkscape:window-maximized="0"
     inkscape:current-layer="svg2" /><defs
     id="defs4"><style
       type="text/css"
       id="style6"><![CDATA[
    .fil9 {fill:#00D1B2}
    .fil0 {fill:#2D2D2D}
    .fil6 {fill:#D27E39}
    .fil2 {fill:#D37F39}
    .fil5 {fill:#F6B4A8}
    .fil1 {fill:#F6D19A}
    .fil4 {fill:#FE816C}
    .fil3 {fill:#FE9B4A}
    .fil8 {fill:#FEFEFE}
    .fil7 {fill:#FFC1B5}
    .fil10 {fill:#373435;fill-rule:nonzero}
   ]]></style></defs><g
     id="Layer_x0020_1"
     transform="translate(-354.47484,-2642.2731)"><metadata
       id="CorelCorpID_0Corel-Layer" /><g
       id="_1865377187424"><path
         class="fil0"
         d="m 1124,6912 0,0 z m 1898,391 c 39,32 62,20 127,17 98,-5 316,37 369,80 -38,20 -494,9 -575,7 l -113,-5 85,-93 c 25,-31 51,-72 74,-109 47,-75 86,-157 115,-248 50,-148 75,-302 87,-460 4,-59 1,-118 6,-175 46,33 72,187 76,252 5,101 -13,203 -37,293 -32,118 -89,239 -155,337 -56,85 -70,49 -59,104 z m 103,-1658 c 177,44 311,307 278,371 -38,23 -107,-37 -135,-63 l -64,-56 c -38,-29 -40,-20 -45,-39 l -34,-213 z m -496,-249 c -2,-112 86,-157 117,-51 15,47 -4,124 -32,147 -51,41 -81,-50 -85,-96 z m -51,-36 c -5,23 -1,36 0,59 3,43 -167,183 -242,147 -72,-33 -53,-313 -16,-382 20,-32 41,-46 91,-30 58,17 102,72 131,122 13,22 38,56 36,84 z m 222,-20 c -8,-38 80,-120 101,-136 20,-14 54,-34 83,-37 45,-5 59,15 68,51 22,99 -33,426 -172,293 -43,-40 -35,-43 -54,-80 -11,-21 -4,-7 -21,-20 l -5,-71 z M 451,5260 c -33,-6 -48,-32 -39,-68 21,-82 148,-108 212,-67 98,61 64,224 40,337 -50,230 -137,459 -142,708 -5,289 117,467 258,598 11,9 16,16 27,25 11,8 21,15 31,23 51,41 140,94 199,120 171,76 97,14 173,148 13,25 29,43 40,68 -114,6 -241,-43 -329,-86 C 825,7018 743,6961 673,6900 284,6563 455,6057 572,5635 c 25,-94 69,-248 55,-348 -8,-54 -26,-120 -76,-129 -68,-14 -83,54 -100,102 z M 2115,3861 c 69,37 101,8 132,-44 27,-43 48,-94 58,-152 0,-47 -8,-57 -20,-97 242,-28 334,-54 592,9 173,43 337,117 518,142 l 16,110 c 8,20 -1,60 24,66 31,8 26,-28 23,-50 l -17,-118 146,12 c 2,26 -8,73 23,73 32,0 22,-48 22,-71 l 94,-3 c -1,20 -21,56 17,53 21,-1 31,-47 32,-49 1,-7 192,-30 225,-37 63,-13 137,-32 198,-55 70,-26 113,-47 167,-85 26,-18 41,-40 68,-61 19,-15 69,-28 94,-21 66,16 31,98 5,133 -46,65 -138,142 -204,191 -37,28 -74,58 -114,82 -56,42 -121,86 -182,124 -31,20 -60,39 -95,61 -28,18 -63,46 -93,58 -12,-23 -16,-33 -34,-53 -22,-14 -34,-7 -36,18 9,26 26,35 34,63 -20,7 -104,64 -121,77 -9,-15 -13,-45 -15,-66 -6,-11 -15,-64 -19,-82 -6,-28 -5,-61 -42,-53 -20,26 10,113 18,150 l 15,81 -79,53 -10,-87 c -4,-44 -13,-127 -33,-160 l -28,5 c -8,26 1,35 -2,61 8,8 8,16 10,31 2,13 3,22 5,34 3,23 6,45 9,67 l 5,83 c -31,26 -61,47 -90,70 -65,48 -112,91 -166,149 l -36,44 c -11,12 -23,29 -33,43 -75,112 -153,314 -170,455 -94,-11 -158,40 -212,99 l -48,55 c -18,-14 -43,-44 -83,-39 -35,4 -57,27 -78,49 l -29,-53 c -29,-26 -69,-109 -171,-128 -196,-38 -180,299 -161,409 18,94 68,131 172,110 75,-23 154,-81 180,-127 6,5 2,1 8,8 9,11 -7,-9 4,5 78,104 157,31 176,-26 11,10 15,21 24,34 130,170 220,38 235,30 4,67 15,158 27,223 l 26,161 c 10,36 24,239 27,281 3,77 -4,160 0,233 -5,233 -63,475 -157,659 -48,95 -135,224 -228,282 -20,12 -35,25 -55,25 -1,0 -136,-27 -191,-33 22,-66 48,-102 62,-185 15,-89 5,-134 -10,-219 -25,-62 -47,-118 -84,-163 -24,-28 -31,-37 -59,-65 -18,-18 -50,-37 -67,-56 -27,-11 -56,-32 -88,-47 -163,-74 -371,-92 -540,-23 -140,57 -105,126 -63,124 43,-1 -4,-15 80,-54 98,-46 228,-50 335,-31 82,14 127,33 194,67 28,14 129,83 139,118 26,11 66,97 78,131 49,134 8,312 -71,418 -7,9 -15,19 -24,29 -7,7 -7,7 -14,13 -7,7 -5,6 -11,14 0,29 12,56 45,46 24,-7 41,-33 51,-52 90,14 337,41 397,114 -13,11 -36,11 -53,12 l -196,11 c -89,4 -177,1 -268,2 -226,-1 -644,-31 -857,-117 -37,-15 -80,-36 -102,-57 -43,-44 -3,-71 23,-100 24,1 69,35 79,-15 7,-40 -29,-35 -53,-66 -70,-9 -187,-254 -217,-322 -184,-426 -221,-929 -124,-1382 12,-56 75,-287 106,-334 27,-40 13,-16 34,-64 40,-87 102,-173 155,-248 71,-102 75,-78 46,-186 -10,-36 -18,-71 -30,-104 -44,-120 -13,-331 45,-449 27,-55 70,-136 113,-156 8,23 30,39 35,61 18,9 47,51 67,67 26,21 71,43 91,4 14,-28 -7,-42 -27,-50 -45,-17 -92,-93 -119,-135 -37,-57 -88,-154 -115,-225 -35,-92 -58,-168 -69,-274 -9,-82 9,-217 68,-264 26,-21 140,16 187,54 49,40 79,76 115,138 62,109 105,220 175,335 36,62 104,146 164,174 z m -450,-761 c 65,-10 176,53 219,81 43,29 47,36 84,67 88,75 320,361 252,459 -10,43 -35,67 -47,98 -103,-5 -232,-278 -275,-372 -31,-70 -77,-147 -119,-200 -59,-75 -102,-97 -183,-133 19,-5 55,-10 69,0 z m -541,3812 c -15,-2 -59,-23 -76,-30 -74,-32 -141,-79 -202,-128 -30,-24 -57,-49 -81,-78 -25,-32 -53,-59 -75,-94 -48,-75 -76,-139 -97,-232 -15,-69 -15,-123 -15,-206 0,-123 35,-260 64,-376 38,-153 159,-495 67,-635 -80,-122 -303,-106 -348,38 -13,41 -8,99 28,123 44,29 93,29 114,-16 5,-11 9,-26 13,-40 7,-20 4,-26 31,-27 5,18 0,0 7,16 3,8 5,11 7,19 l 17,81 c 3,41 -11,92 -18,132 -19,109 -59,212 -86,319 -7,30 -15,50 -22,80 -78,309 -144,697 85,979 30,37 60,73 96,104 159,133 335,234 546,262 70,9 104,-9 127,24 8,11 15,18 27,26 -20,29 -46,49 -55,87 -13,48 12,86 34,108 63,64 161,91 248,115 121,33 246,49 372,63 l 133,14 c 168,8 330,8 502,8 29,1 38,-4 66,-4 29,0 45,-2 67,-4 23,-2 48,1 71,-1 19,-1 44,-6 66,-9 61,-12 111,-60 69,-116 -13,-17 -26,-23 -38,-39 l 89,5 c 36,0 61,1 90,4 87,7 464,1 536,-22 63,-21 53,-72 8,-106 -60,-45 -198,-81 -277,-96 -61,-11 -107,-11 -179,-11 14,-21 27,-41 40,-63 13,-22 23,-45 37,-68 53,-88 92,-203 110,-308 5,-25 14,-60 17,-86 15,-148 4,-322 -71,-434 -13,-19 -29,-40 -45,-57 -37,-36 -27,-14 -30,-76 -1,-25 -6,-70 -8,-94 l -10,-97 c 22,15 42,39 64,56 39,30 80,68 136,73 120,9 117,-111 82,-203 -57,-150 -178,-288 -340,-326 0,-59 -14,-124 -13,-186 0,-70 19,-109 -1,-181 -12,-45 -15,-26 -5,-79 26,-144 65,-247 129,-372 16,-32 36,-62 61,-85 25,-22 44,-67 123,-130 19,-16 35,-31 56,-47 21,-15 38,-29 59,-43 8,36 3,83 4,125 l 4,128 c 0,24 -4,34 -4,62 0,29 -3,40 -5,63 -1,22 2,42 -1,64 -9,61 -11,121 -21,179 -3,18 -5,38 -9,57 -12,51 -21,114 -40,161 -7,20 -24,26 -25,41 -2,19 17,32 35,23 70,-37 93,-348 103,-427 20,-158 7,-345 7,-516 27,-18 56,-42 85,-58 0,33 6,58 11,91 l 20,189 c 8,132 27,264 2,398 -6,37 -24,48 -24,81 9,7 13,11 26,14 41,-27 53,-106 54,-173 l 4,-111 c 0,-25 -4,-29 -4,-53 -1,-109 -28,-374 -49,-466 14,-8 19,-12 32,-22 8,-5 9,-5 17,-10 l 88,-57 c 14,59 35,118 47,179 17,82 23,162 36,249 l 11,162 c -1,38 1,79 0,116 -2,32 -13,70 -13,102 18,13 4,13 35,13 16,-24 21,-66 22,-98 2,-35 8,-77 4,-119 -2,-18 -3,-29 -4,-54 0,-62 -23,-268 -36,-332 l -33,-150 c -9,-33 -21,-64 -29,-95 206,-137 428,-261 610,-430 52,-48 103,-95 135,-162 39,-83 12,-190 -97,-198 -60,-5 -115,20 -152,51 -14,11 -11,11 -22,23 -82,91 -296,140 -423,163 -50,9 -102,16 -153,16 0,-77 -9,-150 -13,-226 -2,-42 -5,-70 -10,-110 -4,-33 -12,-75 -17,-108 -15,-118 -39,-233 -86,-340 -7,-18 -15,-24 -33,-28 l -18,14 c 0,33 19,54 29,85 10,32 17,55 26,89 16,67 24,130 38,197 14,66 20,140 26,210 3,31 2,77 7,109 l 7,112 -98,0 c 0,-79 -13,-151 -23,-229 l -42,-212 c -22,-91 -50,-172 -78,-258 -27,-81 -66,-158 -108,-230 -15,-24 -53,-89 -79,-94 -26,-6 -33,20 -13,44 13,15 25,32 35,49 7,10 10,14 16,24 6,10 10,18 16,28 44,73 72,156 103,235 25,64 41,130 59,198 33,133 65,305 65,445 -37,0 -63,-5 -94,-8 -91,-9 -49,28 -112,-194 -37,-129 -87,-250 -138,-372 -47,-113 -148,-302 -229,-384 -19,-19 -29,-41 -66,-41 -20,31 -12,29 12,50 10,10 10,14 20,25 51,54 90,119 126,184 55,98 103,200 145,304 54,134 94,265 128,410 -102,0 -404,-118 -520,-142 -159,-33 -289,-40 -454,-19 -51,6 -95,19 -150,19 l -56,-94 c -38,-61 -86,-117 -135,-167 l -61,-56 c -53,-50 -139,-108 -214,-131 -126,-40 -249,-38 -353,50 l -35,40 c -37,48 -51,109 -62,169 -27,143 46,371 110,498 9,18 17,33 25,50 7,13 23,41 27,54 -24,36 -58,56 -105,135 -47,79 -73,176 -90,269 -4,22 -5,27 -5,53 0,25 -4,31 -4,57 -1,76 11,145 33,211 9,26 41,113 26,137 -49,70 -106,137 -147,213 -12,24 -41,59 -68,114 l -53,128 c -56,138 -85,288 -108,434 -3,19 -5,32 -8,50 -24,135 -17,269 -17,409 0,26 4,33 5,53 10,201 64,459 135,646 6,18 11,28 17,45 6,18 14,30 16,47 z"
         id="path11"
         inkscape:connector-curvature="0"
         style="fill:#2d2d2d" /><path
         class="fil1"
         d="m 2416,5617 c -8,39 -42,124 -40,158 12,13 25,24 38,37 80,82 165,209 188,323 18,93 -10,173 -86,197 -86,27 -162,-36 -207,-69 l -7,111 c 0,37 3,74 5,111 4,58 12,146 27,199 17,19 49,38 67,56 28,28 35,37 59,65 37,45 59,101 84,163 32,17 95,102 231,85 176,-21 238,-217 281,-359 31,-105 38,-108 56,-222 l 5,-22 c 4,-10 2,-6 6,-11 -4,-73 3,-156 0,-233 -3,-42 -17,-245 -27,-281 l -26,-161 c -12,-65 -23,-156 -27,-223 -15,8 -105,140 -235,-30 -9,-13 -13,-24 -24,-34 -19,57 -98,130 -176,26 -11,-14 5,6 -4,-5 -6,-7 -2,-3 -8,-8 -26,46 -105,104 -180,127 z"
         id="path13"
         inkscape:connector-curvature="0"
         style="fill:#f6d19a" /><path
         class="fil2"
         d="m 2467,4457 c 121,-39 219,94 156,181 -13,19 -45,47 -72,56 -166,53 -252,-184 -84,-237 z m 834,-50 c 19,-6 196,-135 215,-136 -3,-22 -6,-44 -9,-67 -2,-12 -3,-21 -5,-34 -2,-15 -2,-23 -10,-31 3,-26 -6,-35 2,-61 l 28,-5 c 20,33 29,116 33,160 25,-12 46,-36 74,-47 -8,-37 -38,-124 -18,-150 37,-8 36,25 42,53 4,18 13,71 19,82 l 0,-16 c 31,-12 72,-51 102,-58 2,-25 14,-32 36,-18 3,-14 23,-21 43,-32 16,-8 33,-17 50,-25 62,-32 261,-126 311,-133 40,-24 77,-54 114,-82 66,-49 158,-126 204,-191 26,-35 61,-117 -5,-133 -18,50 -97,139 -137,173 -53,46 -119,94 -187,124 -180,78 -310,92 -525,96 24,39 -43,49 -21,-4 -16,3 -84,-2 -102,-9 l -11,-5 c -1,19 -4,34 -27,30 -19,-3 -18,-16 -17,-33 -18,0 -28,-1 -42,-10 3,22 8,58 -23,50 -25,-6 -16,-46 -24,-66 l -5,9 c -173,-39 -328,-103 -503,-139 -139,-29 -303,-38 -447,-33 -54,1 -99,9 -151,-1 -10,58 -31,109 -58,152 -31,52 -63,81 -132,44 -12,23 -8,1 -6,28 2,16 3,19 -6,32 -11,15 -31,21 -51,26 -19,27 -74,64 -114,85 -45,22 -96,40 -151,49 -22,7 -11,-1 -26,14 -11,11 -7,11 -25,13 -20,39 -65,17 -91,-4 -20,-16 -49,-58 -67,-67 2,23 -43,84 -66,142 -44,111 -60,259 -55,380 6,123 53,224 -2,277 -32,30 -60,100 -83,136 -14,21 -29,41 -44,65 -52,88 -94,204 -122,314 -93,379 -86,779 -1,1165 12,56 80,303 108,328 1,30 76,166 93,194 23,35 116,168 9,183 24,31 60,26 53,66 -10,50 -55,16 -79,15 -26,29 -66,56 -23,100 22,21 65,42 102,57 213,86 631,116 857,117 -15,-17 -35,-51 -30,-82 5,-24 34,-55 54,-51 6,-8 4,-7 11,-14 7,-6 7,-6 14,-13 9,-10 17,-20 24,-29 79,-106 120,-284 71,-418 -12,-34 -52,-120 -78,-131 -10,-35 -111,-104 -139,-118 -67,-34 -112,-53 -194,-67 -107,-19 -237,-15 -335,31 -84,39 -37,53 -80,54 -42,2 -77,-67 63,-124 169,-69 377,-51 540,23 32,15 61,36 88,47 -15,-53 -23,-141 -27,-199 -2,-37 -5,-74 -5,-111 l 7,-111 c -10,-14 -36,-33 -49,-48 -16,-17 -31,-35 -46,-51 -72,-82 -101,-136 -188,-203 -47,-37 -115,-22 -84,-93 -20,-41 -53,-82 -41,-146 9,-44 45,-91 88,-97 0,-61 56,-44 98,-31 87,28 240,120 289,181 -2,-34 32,-119 40,-158 -104,21 -154,-16 -172,-110 -19,-110 -35,-447 161,-409 102,19 142,102 171,128 87,-174 208,-339 320,-454 33,-33 63,-63 101,-94 80,-65 127,-110 200,-182 l 104,-89 z m -666,-706 c 115,-21 235,13 321,60 63,35 175,122 194,192 12,47 -7,53 -10,83 -5,32 5,50 -7,90 -54,192 -397,350 -656,221 -82,-41 -172,-105 -181,-206 -21,-247 129,-403 339,-440 z m 971,271 c 32,-16 43,32 19,43 -28,12 -52,-28 -19,-43 z m 109,2 c -6,-23 -6,-25 8,-39 49,-10 42,56 -8,39 z"
         id="path15"
         inkscape:connector-curvature="0"
         style="fill:#d37f39" /><path
         class="fil3"
         d="m 1415,7221 c 107,-15 14,-148 -9,-183 -17,-28 -92,-164 -93,-194 -28,-25 -96,-272 -108,-328 -85,-386 -92,-786 1,-1165 28,-110 70,-226 122,-314 15,-24 30,-44 44,-65 23,-36 51,-106 83,-136 55,-53 8,-154 2,-277 -5,-121 11,-269 55,-380 23,-58 68,-119 66,-142 -5,-22 -27,-38 -35,-61 -43,20 -86,101 -113,156 -58,118 -89,329 -45,449 12,33 20,68 30,104 29,108 25,84 -46,186 -53,75 -115,161 -155,248 -21,48 -7,24 -34,64 -31,47 -94,278 -106,334 -97,453 -60,956 124,1382 30,68 147,313 217,322 z"
         id="path17"
         inkscape:connector-curvature="0"
         style="fill:#fe9b4a" /><path
         class="fil4"
         d="m 1736,4108 c 18,-2 14,-2 25,-13 15,-15 4,-7 26,-14 l -16,1 c 10,-67 -23,-98 -48,-148 -56,-109 -176,-353 -114,-466 120,97 252,460 443,479 20,-5 40,-11 51,-26 9,-13 8,-16 6,-32 -2,-27 -6,-5 6,-28 -60,-28 -128,-112 -164,-174 -70,-115 -113,-226 -175,-335 -36,-62 -66,-98 -115,-138 -47,-38 -161,-75 -187,-54 -59,47 -77,182 -68,264 11,106 34,182 69,274 27,71 78,168 115,225 27,42 74,118 119,135 20,8 41,22 27,50 z"
         id="path19"
         inkscape:connector-curvature="0"
         style="fill:#fe816c" /><path
         class="fil5"
         d="m 451,5260 c 17,-48 32,-116 100,-102 50,9 68,75 76,129 14,100 -30,254 -55,348 -117,422 -288,928 101,1265 70,61 152,118 248,166 88,43 215,92 329,86 -11,-25 -27,-43 -40,-68 -76,-134 -2,-72 -173,-148 -59,-26 -148,-79 -199,-120 -10,-8 -20,-15 -31,-23 -11,-9 -16,-16 -27,-25 -141,-131 -263,-309 -258,-598 5,-249 92,-478 142,-708 24,-113 58,-276 -40,-337 -64,-41 -191,-15 -212,67 -9,36 6,62 39,68 z"
         id="path21"
         inkscape:connector-curvature="0"
         style="fill:#f6b4a8" /><path
         class="fil0"
         d="m 2931,4055 c 38,-11 43,52 15,102 -40,71 -100,118 -184,128 -63,7 -138,7 -175,-48 -48,-72 60,-30 156,-62 42,-13 72,-32 102,-53 19,-15 64,-60 86,-67 z m -149,-252 c 68,-18 88,82 27,97 -69,18 -106,-74 -27,-97 z m -100,-80 c -217,37 -335,315 -163,519 127,150 353,125 471,-33 97,-129 93,-331 -63,-427 -61,-38 -156,-75 -245,-59 z"
         id="path23"
         inkscape:connector-curvature="0"
         style="fill:#2d2d2d" /><path
         class="fil1"
         d="m 3301,4407 -104,89 c -73,72 -120,117 -200,182 -38,31 -68,61 -101,94 -112,115 -233,280 -320,454 l 29,53 c 21,-22 43,-45 78,-49 40,-5 65,25 83,39 l 48,-55 c 54,-59 118,-110 212,-99 17,-141 95,-343 170,-455 10,-14 22,-31 33,-43 l 36,-44 c 54,-58 101,-101 166,-149 29,-23 59,-44 90,-70 l -5,-83 c -19,1 -196,130 -215,136 z"
         id="path25"
         inkscape:connector-curvature="0"
         style="fill:#f6d19a" /><path
         class="fil1"
         d="m 1942,5868 c 124,-61 323,282 443,364 181,123 246,-101 -52,-400 -42,-42 -96,-85 -156,-120 -43,-24 -96,-50 -146,-59 -28,-5 -31,-5 -42,-28 -43,6 -79,53 -88,97 -12,64 21,105 41,146 z"
         id="path27"
         inkscape:connector-curvature="0"
         style="fill:#f6d19a" /><path
         class="fil1"
         d="m 2682,3723 c 89,-16 184,21 245,59 156,96 160,298 63,427 -118,158 -344,183 -471,33 -172,-204 -54,-482 163,-519 z m -47,-22 c -210,37 -360,193 -339,440 9,101 99,165 181,206 259,129 602,-29 656,-221 12,-40 2,-58 7,-90 3,-30 22,-36 10,-83 -19,-70 -131,-157 -194,-192 -86,-47 -206,-81 -321,-60 z"
         id="path29"
         inkscape:connector-curvature="0"
         style="fill:#f6d19a" /><path
         class="fil2"
         d="m 2544,6968 c 15,85 25,130 10,219 -14,83 -40,119 -62,185 55,6 190,33 191,33 20,0 35,-13 55,-25 93,-58 180,-187 228,-282 94,-184 152,-426 157,-659 -4,5 -2,1 -6,11 l -5,22 c -18,114 -25,117 -56,222 -43,142 -105,338 -281,359 -136,17 -199,-68 -231,-85 z"
         id="path31"
         inkscape:connector-curvature="0"
         style="fill:#d37f39" /><path
         class="fil3"
         d="m 3458,3845 c 14,9 24,10 42,10 17,-18 25,-17 44,3 l 11,5 c 18,7 86,12 102,9 l 21,4 c 215,-4 345,-18 525,-96 68,-30 134,-78 187,-124 40,-34 119,-123 137,-173 -25,-7 -75,6 -94,21 -27,21 -42,43 -68,61 -54,38 -97,59 -167,85 -61,23 -135,42 -198,55 -33,7 -224,30 -225,37 -1,2 -11,48 -32,49 -38,3 -18,-33 -17,-53 l -94,3 c 0,23 10,71 -22,71 -31,0 -21,-47 -23,-73 l -146,-12 17,118 z"
         id="path33"
         inkscape:connector-curvature="0"
         style="fill:#fe9b4a" /><path
         class="fil3"
         d="m 2305,3665 c 52,10 97,2 151,1 144,-5 308,4 447,33 175,36 330,100 503,139 l 5,-9 -16,-110 c -181,-25 -345,-99 -518,-142 -258,-63 -350,-37 -592,-9 12,40 20,50 20,97 z"
         id="path35"
         inkscape:connector-curvature="0"
         style="fill:#fe9b4a" /><path
         class="fil0"
         d="m 1989,5625 c 11,23 14,23 42,28 50,9 103,35 146,59 60,35 114,78 156,120 298,299 233,523 52,400 -120,-82 -319,-425 -443,-364 -31,71 37,56 84,93 87,67 116,121 188,203 15,16 30,34 46,51 13,15 39,34 49,48 45,33 121,96 207,69 76,-24 104,-104 86,-197 -23,-114 -108,-241 -188,-323 -13,-13 -26,-24 -38,-37 -49,-61 -202,-153 -289,-181 -42,-13 -98,-30 -98,31 z"
         id="path37"
         inkscape:connector-curvature="0"
         style="fill:#2d2d2d" /><path
         class="fil2"
         d="m 2220,3707 c -23,-3 -58,-49 -72,-74 -34,-60 -35,-170 -134,-306 -76,-106 -182,-171 -306,-209 -15,-5 -52,-14 -43,-18 -14,-10 -50,-5 -69,0 81,36 124,58 183,133 42,53 88,130 119,200 43,94 172,367 275,372 12,-31 37,-55 47,-98 z"
         id="path39"
         inkscape:connector-curvature="0"
         style="fill:#d37f39" /><path
         class="fil1"
         d="m 1787,4081 c 55,-9 106,-27 151,-49 40,-21 95,-58 114,-85 -191,-19 -323,-382 -443,-479 -62,113 58,357 114,466 25,50 58,81 48,148 l 16,-1 z"
         id="path41"
         inkscape:connector-curvature="0"
         style="fill:#f6d19a" /><path
         class="fil6"
         d="m 2943,7407 c -28,-64 25,-94 79,-104 -11,-55 3,-19 59,-104 66,-98 123,-219 155,-337 24,-90 42,-192 37,-293 -4,-65 -30,-219 -76,-252 -5,57 -2,116 -6,175 -12,158 -37,312 -87,460 -29,91 -68,173 -115,248 -23,37 -49,78 -74,109 l -85,93 113,5 z"
         id="path43"
         inkscape:connector-curvature="0"
         style="fill:#d27e39" /><path
         class="fil1"
         d="m 2325,7576 c 91,-1 179,2 268,-2 l 196,-11 c 17,-1 40,-1 53,-12 -60,-73 -307,-100 -397,-114 -10,19 -27,45 -51,52 -33,10 -45,-17 -45,-46 -20,-4 -49,27 -54,51 -5,31 15,65 30,82 z"
         id="path45"
         inkscape:connector-curvature="0"
         style="fill:#f6d19a" /><path
         class="fil7"
         d="m 2467,4457 c -168,53 -82,290 84,237 27,-9 59,-37 72,-56 63,-87 -35,-220 -156,-181 z"
         id="path47"
         inkscape:connector-curvature="0"
         style="fill:#ffc1b5" /><path
         class="fil1"
         d="m 3403,6016 c 33,-64 -101,-327 -278,-371 l 34,213 c 5,19 7,10 45,39 l 64,56 c 28,26 97,86 135,63 z"
         id="path49"
         inkscape:connector-curvature="0"
         style="fill:#f6d19a" /><path
         class="fil1"
         d="m 2943,7407 c 81,2 537,13 575,-7 -53,-43 -271,-85 -369,-80 -65,3 -88,15 -127,-17 -54,10 -107,40 -79,104 z"
         id="path51"
         inkscape:connector-curvature="0"
         style="fill:#f6d19a" /><path
         class="fil8"
         d="m 2931,4055 c -22,7 -67,52 -86,67 -30,21 -60,40 -102,53 -96,32 -204,-10 -156,62 37,55 112,55 175,48 84,-10 144,-57 184,-128 28,-50 23,-113 -15,-102 z"
         id="path53"
         inkscape:connector-curvature="0"
         style="fill:#fefefe" /><path
         class="fil3"
         d="m 2220,3707 c 68,-98 -164,-384 -252,-459 -37,-31 -41,-38 -84,-67 -43,-28 -154,-91 -219,-81 -9,4 28,13 43,18 124,38 230,103 306,209 99,136 100,246 134,306 14,25 49,71 72,74 z"
         id="path55"
         inkscape:connector-curvature="0"
         style="fill:#fe9b4a" /><path
         class="fil1"
         d="m 3810,4079 c 18,20 22,30 34,53 30,-12 65,-40 93,-58 35,-22 64,-41 95,-61 61,-38 126,-82 182,-124 -50,7 -249,101 -311,133 -17,8 -34,17 -50,25 -20,11 -40,18 -43,32 z"
         id="path57"
         inkscape:connector-curvature="0"
         style="fill:#f6d19a" /><path
         class="fil9"
         d="m 3052,5218 c -9,-36 -23,-56 -68,-51 -29,3 -63,23 -83,37 -21,16 -109,98 -101,136 l 5,71 c 17,13 10,-1 21,20 19,37 11,40 54,80 139,133 194,-194 172,-293 z"
         id="path59"
         inkscape:connector-curvature="0"
         style="fill:#00d1b2" /><path
         class="fil9"
         d="m 2578,5360 c 2,-28 -23,-62 -36,-84 -29,-50 -73,-105 -131,-122 -50,-16 -71,-2 -91,30 -37,69 -56,349 16,382 75,36 245,-104 242,-147 -1,-23 -5,-36 0,-59 z"
         id="path61"
         inkscape:connector-curvature="0"
         style="fill:#00d1b2" /><path
         class="fil1"
         d="m 3672,4171 c 2,21 6,51 15,66 17,-13 101,-70 121,-77 -8,-28 -25,-37 -34,-63 -30,7 -71,46 -102,58 l 0,16 z"
         id="path63"
         inkscape:connector-curvature="0"
         style="fill:#f6d19a" /><path
         class="fil8"
         d="m 2782,3803 c -79,23 -42,115 27,97 61,-15 41,-115 -27,-97 z"
         id="path65"
         inkscape:connector-curvature="0"
         style="fill:#fefefe" /><path
         class="fil1"
         d="m 3555,4233 10,87 79,-53 -15,-81 c -28,11 -49,35 -74,47 z"
         id="path67"
         inkscape:connector-curvature="0"
         style="fill:#f6d19a" /><path
         class="fil9"
         d="m 2746,5345 c -31,-106 -119,-61 -117,51 4,46 34,137 85,96 28,-23 47,-100 32,-147 z"
         id="path69"
         inkscape:connector-curvature="0"
         style="fill:#00d1b2" /><path
         class="fil0"
         d="m 3606,3972 c -33,15 -9,55 19,43 24,-11 13,-59 -19,-43 z"
         id="path71"
         inkscape:connector-curvature="0"
         style="fill:#2d2d2d" /><path
         class="fil0"
         d="m 3500,3855 c -1,17 -2,30 17,33 23,4 26,-11 27,-30 -19,-20 -27,-21 -44,-3 z"
         id="path73"
         inkscape:connector-curvature="0"
         style="fill:#2d2d2d" /><path
         class="fil0"
         d="m 3715,3974 c 50,17 57,-49 8,-39 -14,14 -14,16 -8,39 z"
         id="path75"
         inkscape:connector-curvature="0"
         style="fill:#2d2d2d" /><path
         class="fil0"
         d="m 3678,3876 -21,-4 c -22,53 45,43 21,4 z"
         id="path77"
         inkscape:connector-curvature="0"
         style="fill:#2d2d2d" /></g><path
       class="fil10"
       d="m 4526,5890 c -84,0 -149,-24 -193,-72 -45,-49 -67,-117 -67,-205 l 0,-604 c 0,-88 22,-156 67,-204 44,-48 109,-72 193,-72 85,0 150,24 194,72 44,48 67,116 67,204 l 0,119 -167,0 0,-130 c 0,-70 -30,-104 -89,-104 -59,0 -88,34 -88,104 l 0,628 c 0,69 29,103 88,103 59,0 89,-34 89,-103 l 0,-172 167,0 0,159 c 0,88 -23,156 -67,205 -44,48 -109,72 -194,72 z"
       id="path79"
       inkscape:connector-curvature="0"
       style="fill:#373435;fill-rule:nonzero" /><path
       id="1"
       class="fil10"
       d="m 5151,5890 c -86,0 -153,-25 -199,-74 -46,-49 -69,-119 -69,-209 l 0,-591 c 0,-90 23,-160 69,-209 46,-49 113,-74 199,-74 87,0 154,25 200,74 46,49 69,119 69,209 l 0,591 c 0,90 -23,160 -69,209 -46,49 -113,74 -200,74 z m 0,-161 c 61,0 92,-37 92,-111 l 0,-614 c 0,-73 -31,-110 -92,-110 -61,0 -91,37 -91,110 l 0,614 c 0,74 30,111 91,111 z"
       inkscape:connector-curvature="0"
       style="fill:#373435;fill-rule:nonzero" /><path
       id="2"
       class="fil10"
       d="m 5539,4749 270,0 c 87,0 153,24 197,71 44,47 66,116 66,207 l 0,569 c 0,91 -22,160 -66,207 -44,47 -110,71 -197,71 l -270,0 0,-1125 z m 266,964 c 29,0 52,-8 67,-26 16,-17 23,-45 23,-83 l 0,-585 c 0,-39 -7,-66 -23,-84 -15,-17 -38,-25 -67,-25 l -90,0 0,803 90,0 z"
       inkscape:connector-curvature="0"
       style="fill:#373435;fill-rule:nonzero" /><polygon
       id="3"
       class="fil10"
       points="6368,4910 6368,5207 6610,5207 6610,5368 6368,5368 6368,5713 6673,5713 6673,5874 6191,5874 6191,4749 6673,4749 6673,4910 "
       style="fill:#373435;fill-rule:nonzero" /><path
       id="4"
       class="fil10"
       d="m 4507,7390 c -86,0 -150,-24 -194,-73 -44,-49 -66,-119 -66,-210 l 0,-64 167,0 0,77 c 0,73 30,109 91,109 30,0 53,-9 69,-26 15,-18 23,-47 23,-86 0,-47 -11,-89 -32,-125 -22,-36 -61,-79 -119,-129 -73,-64 -124,-123 -153,-175 -29,-51 -43,-110 -43,-175 0,-89 22,-158 67,-207 45,-49 111,-73 196,-73 85,0 149,24 192,73 44,49 66,119 66,210 l 0,46 -168,0 0,-57 c 0,-39 -7,-67 -22,-85 -15,-18 -37,-26 -66,-26 -59,0 -88,36 -88,107 0,41 11,79 33,114 22,36 62,79 119,129 74,64 125,123 153,175 28,53 42,114 42,185 0,92 -23,163 -69,212 -45,49 -111,74 -198,74 z"
       inkscape:connector-curvature="0"
       style="fill:#373435;fill-rule:nonzero" /><polygon
       id="5"
       class="fil10"
       points="5241,6707 5241,6249 5418,6249 5418,7374 5241,7374 5241,6868 5052,6868 5052,7374 4875,7374 4875,6249 5052,6249 5052,6707 "
       style="fill:#373435;fill-rule:nonzero" /><path
       id="6"
       class="fil10"
       d="m 5550,6249 262,0 c 91,0 157,21 199,63 42,43 63,108 63,196 l 0,69 c 0,117 -39,190 -116,222 l 0,3 c 43,13 73,39 91,79 18,39 26,92 26,159 l 0,197 c 0,32 1,58 4,78 2,20 7,40 16,59 l -180,0 c -7,-18 -11,-36 -13,-52 -2,-16 -3,-45 -3,-86 l 0,-206 c 0,-51 -9,-87 -25,-108 -17,-20 -46,-30 -86,-30 l -61,0 0,482 -177,0 0,-1125 z m 241,482 c 35,0 62,-9 79,-27 18,-18 27,-49 27,-92 l 0,-87 c 0,-40 -7,-70 -22,-88 -14,-18 -37,-27 -68,-27 l -80,0 0,321 64,0 z"
       inkscape:connector-curvature="0"
       style="fill:#373435;fill-rule:nonzero" /><polygon
       id="7"
       class="fil10"
       points="6374,6410 6374,6707 6617,6707 6617,6868 6374,6868 6374,7213 6680,7213 6680,7374 6197,7374 6197,6249 6680,6249 6680,6410 "
       style="fill:#373435;fill-rule:nonzero" /><polygon
       id="8"
       class="fil10"
       points="6991,7114 7075,6249 7268,6249 7351,7114 7354,7114 7433,6249 7586,6249 7472,7374 7252,7374 7171,6615 7168,6615 7088,7374 6853,7374 6739,6249 6909,6249 6988,7114 "
       style="fill:#373435;fill-rule:nonzero" /></g></svg>