<?xml version="1.0" encoding="UTF-8" standalone="no"?>
<!-- Creator: CorelDRAW X7 -->

<svg
   xmlns:dc="http://purl.org/dc/elements/1.1/"
   xmlns:cc="http://creativecommons.org/ns#"
   xmlns:rdf="http://www.w3.org/1999/02/22-rdf-syntax-ns#"
   xmlns:svg="http://www.w3.org/2000/svg"
   xmlns="http://www.w3.org/2000/svg"
   xmlns:sodipodi="http://sodipodi.sourceforge.net/DTD/sodipodi-0.dtd"
   xmlns:inkscape="http://www.inkscape.org/namespaces/inkscape"
   xml:space="preserve"
   width="0.89999998in"
   height="0.89999998in"
   version="1.1"
   style="clip-rule:evenodd;fill-rule:evenodd;image-rendering:optimizeQuality;shape-rendering:geometricPrecision;text-rendering:geometricPrecision"
   viewBox="0 0 900.03042 900.00768"
   id="svg2"
   inkscape:version="0.91 r13725"
   sodipodi:docname="icon-rect.svg"><metadata
     id="metadata91"><rdf:RDF><cc:Work
         rdf:about=""><dc:format>image/svg+xml</dc:format><dc:type
           rdf:resource="http://purl.org/dc/dcmitype/StillImage" /><dc:title></dc:title></cc:Work></rdf:RDF></metadata><sodipodi:namedview
     pagecolor="#ffffff"
     bordercolor="#666666"
     borderopacity="1"
     objecttolerance="10"
     gridtolerance="10"
     guidetolerance="10"
     inkscape:pageopacity="0"
     inkscape:pageshadow="2"
     inkscape:window-width="1440"
     inkscape:window-height="766"
     id="namedview89"
     showgrid="false"
     fit-margin-top="0"
     fit-margin-left="0"
     fit-margin-right="0"
     fit-margin-bottom="0"
     inkscape:zoom="1.2685928"
     inkscape:cx="-43.763111"
     inkscape:cy="24.744529"
     inkscape:window-x="-2"
     inkscape:window-y="0"
     inkscape:window-maximized="0"
     inkscape:current-layer="svg2" /><defs
     id="defs4"><style
       type="text/css"
       id="style6"><![CDATA[
    .fil9 {fill:#00D1B2}
    .fil0 {fill:#2D2D2D}
    .fil6 {fill:#D27E39}
    .fil2 {fill:#D37F39}
    .fil5 {fill:#F6B4A8}
    .fil1 {fill:#F6D19A}
    .fil4 {fill:#FE816C}
    .fil3 {fill:#FE9B4A}
    .fil8 {fill:#FEFEFE}
    .fil7 {fill:#FFC1B5}
    .fil10 {fill:#373435;fill-rule:nonzero}
   ]]></style></defs><path
     class="fil8"
     d="m 548.6837,-919.75012 c -79,23 -42,115 27,97 61,-15 41,-115 -27,-97 z"
     id="path65"
     inkscape:connector-curvature="0"
     style="fill:#fefefe" /><g
     id="g4138"
     transform="translate(11.355618,-186.12069)"><path
       sodipodi:nodetypes="sccccccccccccccsscccccsscccccccsscscscs"
       inkscape:connector-curvature="0"
       id="path11"
       d="m 580.68176,491.25115 -48.00506,54.99319 c -18.00005,-14.00003 -42.9889,-43.99871 -82.98891,-38.99876 -35.00007,4.00002 -56.99748,27.00335 -77.99741,49.00343 L 342.67462,503.25244 C 313.67464,477.25234 273.68363,394.25331 171.68363,375.25323 -24.316427,337.25327 -8.3244428,674.25145 10.675532,784.2515 c 18.000051,93.99996 68.011072,131.00799 172.011028,110.00806 74.99997,-23 153.99742,-81.00085 179.9974,-127.00085 5.99998,5.00005 2.00807,0.9867 8.00805,7.98638 8.99997,11.00004 -7.00679,-8.98675 3.99325,5.01317 77.99996,104.00007 157.00418,31.00093 176.00416,-25.99911 11.00004,10.00001 15.0025,20.98549 24.00259,33.98549 C 798.25266,1045.3103 908.39904,649.41183 869.6894,476.25497 820.50774,329.61424 656.61699,409.42849 580.68221,491.25115 Z M 138.45762,424.66901 c 10.81548,-0.49335 23.5908,1.57572 39.21577,6.57578 57.99995,17.00002 102.01566,72.00932 131.01564,122.00934 12.99999,21.99997 38.00384,55.98712 36.00388,83.98718 -5.00006,23 -1.00003,36.0081 0,59.0081 C 347.6929,739.24942 177.6925,879.25961 102.69252,843.2595 30.69254,810.2596 49.676403,530.2588 86.676318,461.2588 100.42634,439.25883 114.66371,425.75393 138.45762,424.66901 Z m 627.69051,18.85919 c 32.94922,0.97115 44.66584,20.21613 52.54077,51.71608 21.99997,99.00002 -33.011,426.00041 -172.01102,293.00036 -43.00001,-40.00002 -34.99485,-42.99401 -53.99482,-79.99404 -11.00004,-20.99993 -4.00769,-7.00935 -21.00771,-20.00935 l -4.9915,-70.98762 c -7.99994,-37.99995 80.0017,-120.00717 101.00174,-136.00716 20.00001,-14.00002 53.98893,-34.00214 82.98891,-37.00213 5.62497,-0.62558 10.76658,-0.85448 15.47363,-0.71558 z M 456.54557,562.19532 c 21.55229,-1.14726 43.5497,16.98736 56.14345,60.04981 14.99996,47.00004 -4.01069,124.0102 -32.01063,147.0102 -51.00006,40.99994 -80.98551,-50.01025 -84.98554,-96.01025 -1.18748,-66.49992 29.35333,-109.37281 60.85272,-111.04976 z"
       style="fill:#2d2d2d" /><path
       style="fill:#00d1b2"
       inkscape:connector-curvature="0"
       id="path59"
       d="m 818.6837,495.24989 c -9,-36 -23,-56 -68,-51 -29,3 -63,23 -83,37 -21,16 -109,98 -101,136 l 5,71 c 17,13 10,-1 21,20 19,37 11,40 54,80 139,133 194,-194 172,-293 z"
       class="fil9" /><path
       style="fill:#00d1b2"
       inkscape:connector-curvature="0"
       id="path61"
       d="m 344.6837,637.24989 c 2,-28 -23,-62 -36,-84 -29,-50 -73,-105 -131,-122 -50,-16 -71,-2 -90.999999,30 -37,69 -56,349 15.999999,382 75,36 245,-104 242,-147 -1,-23 -5,-36 0,-59 z"
       class="fil9" /><path
       style="fill:#00d1b2"
       inkscape:connector-curvature="0"
       id="path69"
       d="m 512.6837,622.24989 c -31,-106 -119,-61 -117,51 4,46 34,137 85,96 28,-23 47,-100 32,-147 z"
       class="fil9" /></g></svg>